<?xml version="1.0" encoding="UTF-8"?>
<svg xmlns="http://www.w3.org/2000/svg" viewBox="0 0 64 64" role="img" aria-labelledby="title desc">
  <title id="title">ToolShala favicon</title>
  <desc id="desc">A bold white ToolShala TS monogram on a vibrant blue gradient badge.</desc>
  <defs>
    <linearGradient id="toolshalaBlue" x1="8" y1="4" x2="58" y2="61" gradientUnits="userSpaceOnUse">
      <stop offset="0" stop-color="#1d4ed8"/>
      <stop offset="0.48" stop-color="#0284c7"/>
      <stop offset="1" stop-color="#22d3ee"/>
    </linearGradient>
    <radialGradient id="shine" cx="18" cy="10" r="48" gradientUnits="userSpaceOnUse">
      <stop offset="0" stop-color="#ffffff" stop-opacity="0.32"/>
      <stop offset="0.52" stop-color="#ffffff" stop-opacity="0.08"/>
      <stop offset="1" stop-color="#ffffff" stop-opacity="0"/>
    </radialGradient>
    <filter id="markShadow" x="-16%" y="-16%" width="132%" height="132%">
      <feDropShadow dx="0" dy="2" stdDeviation="1.25" flood-color="#0f172a" flood-opacity="0.25"/>
    </filter>
  </defs>
  <rect x="3" y="3" width="58" height="58" rx="14" fill="url(#toolshalaBlue)"/>
  <rect x="3" y="3" width="58" height="58" rx="14" fill="url(#shine)"/>
  <g fill="#ffffff" filter="url(#markShadow)">
    <path d="M9.5 16.6 45.6 12.8c2.1-.22 3.9 1.42 3.9 3.54v2.35c0 1.78-1.31 3.29-3.07 3.53L35.9 23.6 33.7 50.95A3.84 3.84 0 0 1 29.88 54.5h-4.07a3.84 3.84 0 0 1-3.84-3.68L20.8 25.6 10.4 27a3.14 3.14 0 0 1-3.55-3.11v-4.12a3.14 3.14 0 0 1 2.65-3.17Z"/>
  </g>
  <path d="M47.5 24.2c-4.45-3.2-13-4.05-17.1-.8-4.9 3.85-2.3 8.65 4.95 12.25 7.1 3.53 13.65 7.25 10.35 12.9-3.15 5.37-14.1 5.25-21.85-.45" fill="none" stroke="#ffffff" stroke-width="8.7" stroke-linecap="square" stroke-linejoin="round" filter="url(#markShadow)"/>
  <path d="M47.5 24.2c-4.45-3.2-13-4.05-17.1-.8-4.9 3.85-2.3 8.65 4.95 12.25 7.1 3.53 13.65 7.25 10.35 12.9-3.15 5.37-14.1 5.25-21.85-.45" fill="none" stroke="#e0f2fe" stroke-width="1.15" stroke-linecap="square" stroke-linejoin="round" opacity="0.48"/>
  <rect x="4" y="4" width="56" height="56" rx="13" fill="none" stroke="#ffffff" stroke-opacity="0.26" stroke-width="2"/>
</svg>
