<?xml version="1.0" encoding="UTF-8"?>
<svg xmlns="http://www.w3.org/2000/svg" viewBox="0 0 256 256" role="img" aria-labelledby="title desc">
  <title id="title">ToolShala favicon</title>
  <desc id="desc">Gray hexagonal ring and cube mark matching the ToolShala logo.</desc>
  <g fill="none" stroke="#969696" stroke-width="4.9" stroke-linejoin="miter" stroke-linecap="butt">
    <polygon points="128 8 234 70 234 188 128 250 22 188 22 70"/>
    <polygon points="128 25 221 80 221 180 128 235 35 180 35 80"/>
    <polygon points="128 42 208 90 208 171 128 219 48 171 48 90"/>
  </g>
  <g fill="#969696">
    <polygon points="128 56 105 75 151 75"/>
    <polygon points="97 82 159 82 183 97 73 97"/>
    <polygon points="70 104 186 104 214 122 42 122"/>
    <polygon points="40 126 216 126 128 158"/>
    <polygon points="40 132 125 165 125 230 40 184"/>
    <polygon points="131 165 216 132 216 184 131 230"/>
  </g>
</svg>
